<svg width="1900" height="1562" viewBox="0 0 1900 1562" fill="none" xmlns="http://www.w3.org/2000/svg">
<path d="M2033.61 1577.61C2052.84 1552.54 2085.52 1496.11 2090.32 1397.87C2099.58 1208.63 2014.49 1222.01 1994.27 1102.71C1962.52 915.391 1955.24 789.888 1806.34 680.553C1685.86 592.082 1388.65 478.273 1121 647.63C898.917 788.15 657.993 517.297 440.939 680.553C288.228 795.413 377.622 931.633 288.228 1040.31C226.33 1115.56 118.698 1145.77 97.802 1295.52C76.2501 1449.97 156.456 1550.38 186.989 1582.35C168.994 1585.89 159.452 1589.58 159.452 1593.38C159.452 1618.96 591.849 1639.71 1125.24 1639.71C1658.63 1639.71 2091.03 1618.96 2091.03 1593.38C2091.03 1587.84 2070.76 1582.53 2033.61 1577.61Z" fill="#E6D8D6"/>
<path d="M1745.01 806.531L1776.08 869.803" stroke="white" stroke-width="3" stroke-miterlimit="10" stroke-linecap="round" stroke-linejoin="round"/>
<path d="M1725.42 841.106L1795.67 835.228" stroke="white" stroke-width="3" stroke-miterlimit="10" stroke-linecap="round" stroke-linejoin="round"/>
<path d="M1777 809.122L1743.49 868.274" stroke="white" stroke-width="3" stroke-miterlimit="10" stroke-linecap="round" stroke-linejoin="round"/>
<path d="M665.21 794.921L723.435 834.658" stroke="white" stroke-width="3" stroke-miterlimit="10" stroke-linecap="round" stroke-linejoin="round"/>
<path d="M665.21 834.658L723.435 794.921" stroke="white" stroke-width="3" stroke-miterlimit="10" stroke-linecap="round" stroke-linejoin="round"/>
<path d="M694.322 781.408V849.392" stroke="white" stroke-width="3" stroke-miterlimit="10" stroke-linecap="round" stroke-linejoin="round"/>
<path d="M1065.59 722.341L1079.27 777.38" stroke="white" stroke-width="3" stroke-miterlimit="10" stroke-linecap="round" stroke-linejoin="round"/>
<path d="M1044.31 746.199L1100.55 753.521" stroke="white" stroke-width="3" stroke-miterlimit="10" stroke-linecap="round" stroke-linejoin="round"/>
<path d="M1090.3 729.817L1053.9 770.636" stroke="white" stroke-width="3" stroke-miterlimit="10" stroke-linecap="round" stroke-linejoin="round"/>
<path d="M221.139 1256.92L245.173 1305.86" stroke="white" stroke-width="3" stroke-miterlimit="10" stroke-linecap="round" stroke-linejoin="round"/>
<path d="M205.991 1283.66L260.32 1279.12" stroke="white" stroke-width="3" stroke-miterlimit="10" stroke-linecap="round" stroke-linejoin="round"/>
<path d="M245.881 1258.93L219.966 1304.68" stroke="white" stroke-width="3" stroke-miterlimit="10" stroke-linecap="round" stroke-linejoin="round"/>
<path d="M688.719 1151.06C688.719 1151.06 567.269 967.891 536.707 940.929C506.145 913.967 456.025 941.361 474.344 974.004C492.664 1006.65 491.655 1032.79 471.782 1040.52C431.103 1056.34 346.493 910.597 474.344 861.729C602.196 812.861 748.8 1136.9 748.8 1136.9L688.719 1151.06Z" fill="white"/>
<path d="M688.719 1151.06L748.8 1136.9C748.8 1136.9 734.819 1106 711.734 1064.73C699.938 1075.47 682.912 1094.36 669.753 1122.74C681.331 1139.92 688.719 1151.06 688.719 1151.06Z" fill="#FE434C"/>
<path d="M571.123 884.077C548.461 867.293 525.079 856.854 501.919 856.717C494.382 877.674 495.304 902.445 503.021 930.279C514.26 929.043 526.559 931.976 536.707 940.929C541.137 944.837 547.486 952.043 555.089 961.482C554.327 932.497 559.417 906.563 571.123 884.077Z" fill="#FE434C"/>
<path d="M593.556 1012.74C606.178 1030.29 619.343 1049.08 631.722 1066.99C638.182 1038.5 650 1014 669.055 994.876C656.478 976.148 642.834 957.466 628.44 940.169C613.536 961.48 601.152 985.006 593.556 1012.74Z" fill="#FE434C"/>
<path d="M430.346 889.368C415.253 904.93 408.258 923.191 406.802 941.572C427.086 961.079 448.975 968.834 471.949 968.641C469.002 960.1 470.602 952.14 475.076 945.682C455.066 930.967 440.307 912.075 430.346 889.368Z" fill="#FE434C"/>
<path d="M471.783 1040.52C481.457 1036.76 486.624 1028.61 487.304 1017.49C466.614 1020.25 446.085 1018.38 425.721 1011.67C439.573 1032.95 458.144 1045.83 471.783 1040.52Z" fill="#FE434C"/>
<path d="M1718.65 1285.24C1718.65 1285.24 1800.04 1081.09 1824.43 1048.44C1848.83 1015.8 1903.49 1032.35 1892.24 1068.05C1881 1103.76 1887.33 1129.14 1908.37 1132.64C1951.43 1139.8 2004.41 979.816 1869.26 958.156C1734.11 936.495 1656.95 1283.68 1656.95 1283.68L1718.65 1285.24Z" fill="white"/>
<path d="M1718.65 1285.24L1656.95 1283.68C1656.95 1283.68 1664.31 1250.57 1678.46 1205.45C1692.2 1213.55 1712.73 1228.55 1731.42 1253.64C1723.61 1272.82 1718.65 1285.24 1718.65 1285.24Z" fill="#FE434C"/>
<path d="M1779.11 999.841C1797.85 978.774 1818.6 963.769 1841.24 958.894C1852.91 977.865 1857.08 1002.3 1855.22 1031.12C1843.97 1032.22 1832.53 1037.6 1824.43 1048.44C1820.9 1053.18 1816.16 1061.53 1810.65 1072.33C1805.46 1043.8 1795.17 1019.45 1779.11 999.841Z" fill="#FE434C"/>
<path d="M1783.49 1130.37C1774.73 1150.13 1765.69 1171.22 1757.24 1191.29C1745.08 1164.72 1728.5 1143.16 1705.93 1128.34C1714.41 1107.44 1723.94 1086.36 1734.49 1066.48C1753.44 1084.29 1770.37 1104.78 1783.49 1130.37Z" fill="#FE434C"/>
<path d="M1917.99 976.202C1935.94 988.345 1946.53 1004.79 1951.72 1022.48C1935.86 1045.73 1916.02 1057.8 1893.49 1062.31C1894.63 1053.35 1891.43 1045.89 1885.73 1040.48C1902.31 1021.98 1912.88 1000.47 1917.99 976.202Z" fill="#FE434C"/>
<path d="M1908.37 1132.64C1898.13 1130.93 1891.4 1124.01 1888.46 1113.27C1909.28 1111.74 1928.99 1105.7 1947.55 1094.97C1938.35 1118.64 1922.8 1135.04 1908.37 1132.64Z" fill="#FE434C"/>
<path d="M314.323 1222.01L326.93 1573.74H648.634L638.513 1213.72L314.323 1222.01Z" fill="#4BB4AD"/>
<path d="M387.657 1161.67L314.323 1222.01L638.513 1213.72L693.456 1145.77L387.657 1161.67Z" fill="#258A86"/>
<path d="M481.479 1573.74L465.772 1218.14L536.478 1153.93" stroke="white" stroke-width="3" stroke-miterlimit="10" stroke-linecap="round" stroke-linejoin="round"/>
<path d="M356.274 1187.49L667.97 1177.29" stroke="white" stroke-width="3" stroke-miterlimit="10" stroke-linecap="round" stroke-linejoin="round"/>
<path d="M318.639 1342.41L641.886 1333.69" stroke="white" stroke-width="3" stroke-miterlimit="10" stroke-linecap="round" stroke-linejoin="round"/>
<path d="M503.889 1182.39C503.889 1182.39 391.271 1135.64 431.032 1093.71C470.793 1051.78 503.889 1182.39 503.889 1182.39Z" stroke="white" stroke-width="3" stroke-miterlimit="10" stroke-linecap="round" stroke-linejoin="round"/>
<path d="M457.781 1450.84C438.984 1443.61 407.898 1406.74 410.79 1370.6C414.445 1324.92 441.876 1319.27 451.997 1322.16C462.118 1325.05 464.906 1338.72 446.937 1333.69C428.968 1328.67 394.867 1301.92 403.561 1260.71C412.255 1219.5 445.138 1208.92 460.018 1209.38C474.898 1209.85 480.914 1235.41 457.058 1232.52C433.201 1229.62 397.777 1169.62 442.501 1145.76C487.234 1121.9 503.889 1182.39 503.889 1182.39" stroke="white" stroke-width="3" stroke-miterlimit="10" stroke-linecap="round" stroke-linejoin="round"/>
<path d="M503.89 1182.47C503.89 1182.47 505.336 1096.23 542.205 1110.69C579.074 1125.15 503.89 1182.47 503.89 1182.47Z" stroke="white" stroke-width="3" stroke-miterlimit="10" stroke-linecap="round" stroke-linejoin="round"/>
<path d="M1071.88 893.653H1553.92L1565.35 1573.74H1082.16L1071.88 893.653Z" fill="#E1283A"/>
<path d="M1664.73 1573.74L1644.16 830.827L1128.99 844.534L1071.88 893.653H1553.92L1565.35 1573.74H1664.73Z" fill="#FE434C"/>
<path d="M1302.62 1573.74L1310.62 893.653L1368.3 838.167" stroke="white" stroke-width="3" stroke-miterlimit="10" stroke-linecap="round" stroke-linejoin="round"/>
<path d="M1102.66 867.179L1606.47 858.242L1616.65 1566.62" stroke="white" stroke-width="3" stroke-miterlimit="10" stroke-linecap="round" stroke-linejoin="round"/>
<path d="M1344.33 863.516C1344.33 863.516 1227.76 864.639 1238.96 810.648C1250.16 756.657 1344.33 863.516 1344.33 863.516Z" stroke="white" stroke-width="3" stroke-miterlimit="10" stroke-linecap="round" stroke-linejoin="round"/>
<path d="M1076.07 1171.22L1558.06 1140.19L1650.2 1049" stroke="white" stroke-width="3" stroke-miterlimit="10" stroke-linecap="round" stroke-linejoin="round"/>
<path d="M1344.33 863.516C1341.88 860.805 1243.65 713.451 1294.47 683.481C1345.29 653.51 1344.33 863.516 1344.33 863.516Z" stroke="white" stroke-width="3" stroke-miterlimit="10" stroke-linecap="round" stroke-linejoin="round"/>
<path d="M1344.33 863.516C1344.33 863.516 1335.84 704.981 1395.78 720.944C1455.72 736.907 1344.33 863.516 1344.33 863.516Z" stroke="white" stroke-width="3" stroke-miterlimit="10" stroke-linecap="round" stroke-linejoin="round"/>
<path d="M1344.33 863.516C1344.33 863.516 1422.8 753.382 1463.22 807.273C1495.47 850.275 1344.33 863.516 1344.33 863.516Z" stroke="white" stroke-width="3" stroke-miterlimit="10" stroke-linecap="round" stroke-linejoin="round"/>
<path d="M1766.3 1222.01H1368.3V1573.74H1766.3V1222.01Z" fill="#4BB4AD"/>
<path d="M1813.95 1573.74V1162.23L1425.75 1171.22L1368.3 1222.01H1766.3V1573.74H1813.95Z" fill="#258A86"/>
<path d="M1574.3 1573.74V1222.01L1628.96 1166.51" stroke="white" stroke-width="3" stroke-miterlimit="10" stroke-linecap="round" stroke-linejoin="round"/>
<path d="M1401.42 1192.72L1792.85 1188.7L1795.73 1573.74" stroke="white" stroke-width="3" stroke-miterlimit="10" stroke-linecap="round" stroke-linejoin="round"/>
<path d="M1368.3 1333.44H1766.3L1813.95 1303.42" stroke="white" stroke-width="3" stroke-miterlimit="10" stroke-linecap="round" stroke-linejoin="round"/>
<path d="M1605.21 1190.63C1605.21 1190.63 1463.58 1146.28 1512.18 1091.15C1560.79 1036.01 1605.21 1190.63 1605.21 1190.63Z" stroke="white" stroke-width="3" stroke-miterlimit="10" stroke-linecap="round" stroke-linejoin="round"/>
<path d="M1603.65 1190.63C1603.65 1190.63 1588.29 1082.05 1646.62 1096.25C1704.96 1110.46 1603.65 1190.63 1603.65 1190.63Z" stroke="white" stroke-width="3" stroke-miterlimit="10" stroke-linecap="round" stroke-linejoin="round"/>
<path d="M1605.21 1190.63C1605.21 1190.63 1634.06 1124.49 1684.84 1162.23C1735.62 1199.96 1701.52 1268.15 1669.6 1279.04C1637.68 1289.92 1622.47 1250.72 1655.47 1239.13C1688.46 1227.53 1734.89 1237.69 1746.5 1294.27C1758.11 1350.85 1705.15 1376.04 1692.82 1381.22C1680.48 1386.4 1654.37 1372.62 1681.93 1358.11C1709.5 1343.6 1739.97 1379.15 1724.74 1427.02C1709.5 1474.9 1660.1 1498.84 1660.1 1498.84" stroke="white" stroke-width="3" stroke-miterlimit="10" stroke-linecap="round" stroke-linejoin="round"/>
<path d="M638.514 1213.72C638.514 1213.72 837.709 931.348 919.954 931.348C1002.2 931.348 1247.79 1213.72 1247.79 1213.72V1573.74C1247.79 1573.74 648.775 1578.71 648.635 1573.74C648.495 1568.77 638.514 1213.72 638.514 1213.72Z" fill="#CC9966"/>
<path d="M705.204 1381.41C702.919 1365.42 702.919 1253.47 713.2 1171.23C723.481 1088.98 751.585 1014.76 758.892 1012.45C889.113 971.328 1259.21 977.04 1236.37 1027.3C1166.9 1180.14 1156.41 1392.83 1143.84 1414.54C1131.28 1436.24 705.204 1381.41 705.204 1381.41Z" fill="white"/>
<path d="M796.059 1078.7C796.059 1078.7 925.267 1044.43 1121 1095.84" stroke="#E6D8D6" stroke-width="4" stroke-miterlimit="10" stroke-linecap="round" stroke-linejoin="round"/>
<path d="M777.159 1145.09C777.159 1145.09 906.366 1110.82 1102.1 1162.23" stroke="#E6D8D6" stroke-width="4" stroke-miterlimit="10" stroke-linecap="round" stroke-linejoin="round"/>
<path d="M768.982 1219.04C768.982 1219.04 898.189 1184.77 1093.92 1236.17" stroke="#E6D8D6" stroke-width="4" stroke-miterlimit="10" stroke-linecap="round" stroke-linejoin="round"/>
<path d="M751.584 1286.29C751.584 1286.29 880.791 1252.02 1076.52 1303.42" stroke="#E6D8D6" stroke-width="4" stroke-miterlimit="10" stroke-linecap="round" stroke-linejoin="round"/>
<path d="M638.514 1213.72C638.514 1213.72 893.681 1359.71 913.1 1401.97C932.519 1444.24 648.635 1573.74 648.635 1573.74L638.514 1213.72Z" fill="#F1AF78"/>
<path d="M1247.79 1213.72C1247.79 1213.72 950.796 1293.45 957.65 1400.83C964.503 1508.2 1247.79 1573.74 1247.79 1573.74V1213.72Z" fill="#F1AF78"/>
<path d="M648.635 1573.74C648.635 1573.74 796.208 1346.83 914.053 1342.41C1031.9 1338 1247.79 1573.74 1247.79 1573.74H648.635Z" fill="#CC9966"/>
<path d="M1024.16 1300.2C1010.32 1305.81 996.82 1305.35 983.861 1295.21C975.674 1311.86 964.683 1311.83 952.285 1303.42C950.634 1321.25 940.109 1331.26 920.709 1333.44C923.656 1344.76 920.688 1355.4 908.66 1365.01C918.843 1377.62 917.328 1392.04 914.037 1406.73C929.386 1394.89 945.829 1392.07 963.919 1402.82C963.331 1383.5 976.602 1380.31 998.403 1387.04C999.442 1369.03 1009.93 1358.61 1032.06 1357.54C1022.13 1347.47 1022.4 1337.67 1034.13 1328.14C1019.95 1318.17 1016.35 1308.83 1024.16 1300.2Z" fill="#258A86"/>
<path d="M1080.64 1472.96C1068.77 1463.89 1054.46 1451.92 1056.62 1435.61C1038.12 1437.01 1023.17 1427.24 1024.11 1412.29C1007.92 1419.92 993.95 1415.93 982.214 1400.33C973.96 1408.62 963.285 1411.47 948.898 1405.99C943.214 1421.16 930.022 1427.18 915.69 1431.81C933.685 1439.02 944.468 1451.75 944.393 1472.79C960.737 1462.47 970.23 1472.28 975.507 1494.48C991.545 1486.23 1005.85 1489.98 1018.01 1508.49C1021.64 1494.83 1037.47 1488.91 1051.63 1494.18C1053.02 1476.9 1069.23 1470.62 1080.64 1472.96Z" fill="#258A86"/>
<path d="M1030.93 1460.22C922.37 1411.61 841.472 1436.32 841.472 1436.32" stroke="#303E4E" stroke-width="2" stroke-miterlimit="10" stroke-linecap="round" stroke-linejoin="round"/>
<path d="M1002.36 1317.25C900.986 1381.24 880.233 1472.96 880.233 1472.96" stroke="#303E4E" stroke-width="2" stroke-miterlimit="10" stroke-linecap="round" stroke-linejoin="round"/>
<path d="M915.689 1467.22C912.399 1465.56 860.464 1318.43 860.464 1318.43" stroke="#303E4E" stroke-width="2" stroke-miterlimit="10" stroke-linecap="round" stroke-linejoin="round"/>
<path d="M901.181 1328.14L886.133 1390.24" stroke="#303E4E" stroke-width="2" stroke-miterlimit="10" stroke-linecap="round" stroke-linejoin="round"/>
<path d="M829.719 1350.97C831.381 1351.72 881.457 1377.28 881.457 1377.28" stroke="#303E4E" stroke-width="2" stroke-miterlimit="10" stroke-linecap="round" stroke-linejoin="round"/>
<path d="M905.526 1332.36C913.319 1332.36 919.636 1326.04 919.636 1318.25C919.636 1310.46 913.319 1304.14 905.526 1304.14C897.734 1304.14 891.417 1310.46 891.417 1318.25C891.417 1326.04 897.734 1332.36 905.526 1332.36Z" fill="#FE434C"/>
<path d="M855.581 1323.43C863.373 1323.43 869.69 1317.12 869.69 1309.32C869.69 1301.53 863.373 1295.21 855.581 1295.21C847.788 1295.21 841.471 1301.53 841.471 1309.32C841.471 1317.12 847.788 1323.43 855.581 1323.43Z" fill="#FE434C"/>
<path d="M829.719 1365.08C837.511 1365.08 843.828 1358.77 843.828 1350.97C843.828 1343.18 837.511 1336.86 829.719 1336.86C821.926 1336.86 815.609 1343.18 815.609 1350.97C815.609 1358.77 821.926 1365.08 829.719 1365.08Z" fill="#FE434C"/>
<path d="M216.632 1425.27C216.632 1425.27 182.505 1394.16 207.467 1376.9C232.429 1359.63 248.487 1404.55 248.487 1404.55L216.632 1425.27Z" fill="#303E4E"/>
<path d="M1314.26 1372.95C1314.26 1372.95 1312.48 1322.37 1345.13 1328.69C1377.78 1335.01 1354.91 1382.01 1354.91 1382.01L1314.26 1372.95Z" fill="#303E4E"/>
<path d="M1500.63 1460.25C1500.63 1460.25 1512.67 1425.64 1533.06 1438.46C1553.44 1451.27 1525.7 1477.01 1525.7 1477.01L1500.63 1460.25Z" fill="#303E4E"/>
<path d="M1868.87 1414.63C1868.87 1414.63 1878.39 1374.54 1902.66 1386.56C1926.93 1398.57 1898.82 1430.53 1898.82 1430.53L1868.87 1414.63Z" fill="#303E4E"/>
<path d="M207.467 1376.89C207.467 1376.89 105.898 1293.97 136.525 1269.17C167.153 1244.37 207.467 1376.89 207.467 1376.89Z" stroke="#303E4E" stroke-width="2" stroke-miterlimit="10" stroke-linecap="round" stroke-linejoin="round"/>
<path d="M1345.13 1328.69C1345.13 1328.69 1332.23 1185.58 1375.13 1190.56C1418.03 1195.54 1345.13 1328.69 1345.13 1328.69Z" stroke="#303E4E" stroke-width="2" stroke-miterlimit="10" stroke-linecap="round" stroke-linejoin="round"/>
<path d="M1533.06 1438.46C1533.06 1438.46 1561.83 1338.49 1589.48 1353.08C1617.13 1367.68 1533.06 1438.46 1533.06 1438.46Z" stroke="#303E4E" stroke-width="2" stroke-miterlimit="10" stroke-linecap="round" stroke-linejoin="round"/>
<path d="M288.227 1600.46C344.766 1600.46 390.6 1554.62 390.6 1498.08C390.6 1441.54 344.766 1395.71 288.227 1395.71C231.689 1395.71 185.855 1441.54 185.855 1498.08C185.855 1554.62 231.689 1600.46 288.227 1600.46Z" fill="#FE434C"/>
<path d="M1312.11 1597.01C1374.07 1597.01 1424.29 1546.78 1424.29 1484.83C1424.29 1422.87 1374.07 1372.64 1312.11 1372.64C1250.16 1372.64 1199.93 1422.87 1199.93 1484.83C1199.93 1546.78 1250.16 1597.01 1312.11 1597.01Z" fill="#FE434C"/>
<path d="M1843 1593.36C1893.45 1593.36 1934.35 1552.46 1934.35 1502.01C1934.35 1451.55 1893.45 1410.66 1843 1410.66C1792.55 1410.66 1751.65 1451.55 1751.65 1502.01C1751.65 1552.46 1792.55 1593.36 1843 1593.36Z" fill="#FE434C"/>
<path d="M1469.88 1616.42C1514.74 1616.42 1551.1 1580.06 1551.1 1535.2C1551.1 1490.35 1514.74 1453.98 1469.88 1453.98C1425.03 1453.98 1388.67 1490.35 1388.67 1535.2C1388.67 1580.06 1425.03 1616.42 1469.88 1616.42Z" fill="#E1283A"/>
<path d="M225.471 1467.83L344.145 1535.05" stroke="white" stroke-width="2" stroke-miterlimit="10" stroke-linecap="round" stroke-linejoin="round"/>
<path d="M222.679 1454.17L226.451 1469.27L210.466 1471.19" stroke="white" stroke-width="2" stroke-miterlimit="10" stroke-linecap="round" stroke-linejoin="round"/>
<path d="M348.373 1549.37L343.574 1534.52L359.362 1531.54" stroke="white" stroke-width="2" stroke-miterlimit="10" stroke-linecap="round" stroke-linejoin="round"/>
<path d="M240.677 1456.26L247.003 1481.59L220.195 1484.81" stroke="white" stroke-width="2" stroke-miterlimit="10" stroke-linecap="round" stroke-linejoin="round"/>
<path d="M328.729 1546.38L320.681 1521.49L347.157 1516.48" stroke="white" stroke-width="2" stroke-miterlimit="10" stroke-linecap="round" stroke-linejoin="round"/>
<path d="M226.973 1534.58L342.838 1468.4" stroke="white" stroke-width="2" stroke-miterlimit="10" stroke-linecap="round" stroke-linejoin="round"/>
<path d="M213.623 1529.84L228.712 1534.5L222.757 1549.14" stroke="white" stroke-width="2" stroke-miterlimit="10" stroke-linecap="round" stroke-linejoin="round"/>
<path d="M357.449 1472.27L342.099 1468.62L347.02 1453.58" stroke="white" stroke-width="2" stroke-miterlimit="10" stroke-linecap="round" stroke-linejoin="round"/>
<path d="M224.066 1515.57L249.372 1523.39L239.385 1547.95" stroke="white" stroke-width="2" stroke-miterlimit="10" stroke-linecap="round" stroke-linejoin="round"/>
<path d="M345.432 1487.47L319.69 1481.35L327.943 1456.14" stroke="white" stroke-width="2" stroke-miterlimit="10" stroke-linecap="round" stroke-linejoin="round"/>
<path d="M286.886 1568.52L284.077 1435.12" stroke="white" stroke-width="2" stroke-miterlimit="10" stroke-linecap="round" stroke-linejoin="round"/>
<path d="M273.25 1424.57L284.275 1435.86L294.637 1423.91" stroke="white" stroke-width="2" stroke-miterlimit="10" stroke-linecap="round" stroke-linejoin="round"/>
<path d="M304.689 1561.24L284.968 1543.56L269.042 1564.75" stroke="white" stroke-width="2" stroke-miterlimit="10" stroke-linecap="round" stroke-linejoin="round"/>
<path d="M266.388 1442.7L284.877 1461.63L302.253 1441.59" stroke="white" stroke-width="2" stroke-miterlimit="10" stroke-linecap="round" stroke-linejoin="round"/>
<path d="M304.423 1512.55C310.351 1502.08 306.419 1488.65 295.64 1482.54C284.86 1476.44 271.315 1479.97 265.386 1490.44C259.457 1500.91 263.389 1514.34 274.169 1520.45C284.949 1526.55 298.494 1523.02 304.423 1512.55Z" stroke="white" stroke-width="2" stroke-miterlimit="10" stroke-linecap="round" stroke-linejoin="round"/>
<path d="M1467.55 1482.13L1472.21 1588.1" stroke="white" stroke-width="2" stroke-miterlimit="10" stroke-linecap="round" stroke-linejoin="round"/>
<path d="M1475.4 1474.65L1467 1483.37L1459.14 1473.62" stroke="white" stroke-width="2" stroke-miterlimit="10" stroke-linecap="round" stroke-linejoin="round"/>
<path d="M1481.45 1487.38L1467.36 1502L1454.18 1485.66" stroke="white" stroke-width="2" stroke-miterlimit="10" stroke-linecap="round" stroke-linejoin="round"/>
<path d="M1424.16 1510.67L1515.61 1559.74" stroke="white" stroke-width="2" stroke-miterlimit="10" stroke-linecap="round" stroke-linejoin="round"/>
<path d="M1421.78 1499.91L1424.93 1511.78L1412.83 1513.9" stroke="white" stroke-width="2" stroke-miterlimit="10" stroke-linecap="round" stroke-linejoin="round"/>
<path d="M1519.09 1570.96L1515.16 1559.34L1527.1 1556.38" stroke="white" stroke-width="2" stroke-miterlimit="10" stroke-linecap="round" stroke-linejoin="round"/>
<path d="M1435.5 1500.9L1440.78 1520.82L1420.48 1524.37" stroke="white" stroke-width="2" stroke-miterlimit="10" stroke-linecap="round" stroke-linejoin="round"/>
<path d="M1504.11 1569.31L1497.52 1549.82L1517.54 1544.85" stroke="white" stroke-width="2" stroke-miterlimit="10" stroke-linecap="round" stroke-linejoin="round"/>
<path d="M1426.52 1564.17L1513.3 1507.26" stroke="white" stroke-width="2" stroke-miterlimit="10" stroke-linecap="round" stroke-linejoin="round"/>
<path d="M1425.09 1575.1L1427.19 1562.99L1414.94 1561.95" stroke="white" stroke-width="2" stroke-miterlimit="10" stroke-linecap="round" stroke-linejoin="round"/>
<path d="M1515.78 1495.77L1512.89 1507.7L1525.04 1509.6" stroke="white" stroke-width="2" stroke-miterlimit="10" stroke-linecap="round" stroke-linejoin="round"/>
<path d="M1438.66 1572.9L1442.18 1552.6L1421.64 1550.85" stroke="white" stroke-width="2" stroke-miterlimit="10" stroke-linecap="round" stroke-linejoin="round"/>
<path d="M1501 1498.73L1496.15 1518.73L1516.54 1521.91" stroke="white" stroke-width="2" stroke-miterlimit="10" stroke-linecap="round" stroke-linejoin="round"/>
<path d="M1470.65 1552.63C1480 1552.22 1487.23 1544.08 1486.81 1534.46C1486.38 1524.83 1478.46 1517.36 1469.12 1517.77C1459.77 1518.18 1452.54 1526.32 1452.96 1535.95C1453.38 1545.57 1461.3 1553.04 1470.65 1552.63Z" stroke="white" stroke-width="2" stroke-miterlimit="10" stroke-linecap="round" stroke-linejoin="round"/>
<path d="M1234.52 1409.2C1234.52 1409.2 1251.34 1396.82 1266.13 1401.32C1280.91 1405.82 1276.24 1423.99 1290.42 1429.14C1304.6 1434.28 1317.12 1416.92 1331.11 1420.78C1345.11 1424.64 1343.95 1444.57 1356.1 1447.78C1368.26 1451 1384.37 1436.11 1394.53 1438.46C1409.95 1442.02 1414.94 1465.11 1414.94 1465.11" stroke="white" stroke-width="2" stroke-miterlimit="10" stroke-linecap="round" stroke-linejoin="round"/>
<path d="M1206.96 1500.84C1206.96 1500.84 1223.78 1488.45 1238.57 1492.95C1253.36 1497.45 1248.68 1515.63 1262.86 1520.77C1277.04 1525.92 1289.56 1508.56 1303.56 1512.41C1317.55 1516.27 1316.39 1536.2 1328.55 1539.42C1340.7 1542.63 1355.82 1525.92 1365.98 1528.26C1381.39 1531.82 1385.27 1551.86 1385.27 1551.86" stroke="white" stroke-width="2" stroke-miterlimit="10" stroke-linecap="round" stroke-linejoin="round"/>
<path d="M1239.49 1460.3C1245.5 1460.3 1250.38 1455.43 1250.38 1449.41C1250.38 1443.4 1245.5 1438.53 1239.49 1438.53C1233.47 1438.53 1228.6 1443.4 1228.6 1449.41C1228.6 1455.43 1233.47 1460.3 1239.49 1460.3Z" stroke="white" stroke-width="2" stroke-miterlimit="10" stroke-linecap="round" stroke-linejoin="round"/>
<path d="M1310.47 1485.66C1319.42 1485.66 1326.67 1478.41 1326.67 1469.46C1326.67 1460.51 1319.42 1453.26 1310.47 1453.26C1301.52 1453.26 1294.27 1460.51 1294.27 1469.46C1294.27 1478.41 1301.52 1485.66 1310.47 1485.66Z" stroke="white" stroke-width="2" stroke-miterlimit="10" stroke-linecap="round" stroke-linejoin="round"/>
<path d="M1379.19 1502.86C1385.2 1502.86 1390.08 1497.98 1390.08 1491.97C1390.08 1485.96 1385.2 1481.08 1379.19 1481.08C1373.18 1481.08 1368.3 1485.96 1368.3 1491.97C1368.3 1497.98 1373.18 1502.86 1379.19 1502.86Z" stroke="white" stroke-width="2" stroke-miterlimit="10" stroke-linecap="round" stroke-linejoin="round"/>
<path d="M1858.13 1549.95C1886.41 1549.95 1909.34 1527.02 1909.34 1498.73C1909.34 1470.44 1886.41 1447.51 1858.13 1447.51C1829.84 1447.51 1806.91 1470.44 1806.91 1498.73C1806.91 1527.02 1829.84 1549.95 1858.13 1549.95Z" stroke="white" stroke-width="2" stroke-miterlimit="10" stroke-linecap="round" stroke-linejoin="round"/>
<path d="M1858.13 1508.09C1863.29 1508.09 1867.48 1503.9 1867.48 1498.73C1867.48 1493.56 1863.29 1489.37 1858.13 1489.37C1852.96 1489.37 1848.77 1493.56 1848.77 1498.73C1848.77 1503.9 1852.96 1508.09 1858.13 1508.09Z" stroke="white" stroke-width="2" stroke-miterlimit="10" stroke-linecap="round" stroke-linejoin="round"/>
<path d="M1856.18 1447.55L1858.13 1489.37" stroke="white" stroke-width="2" stroke-miterlimit="10" stroke-linecap="round" stroke-linejoin="round"/>
<path d="M1890.7 1459.2C1889.97 1458.62 1864.87 1492.25 1864.87 1492.25" stroke="white" stroke-width="2" stroke-miterlimit="10" stroke-linecap="round" stroke-linejoin="round"/>
<path d="M1867.48 1498.73L1907.82 1486.32" stroke="white" stroke-width="2" stroke-miterlimit="10" stroke-linecap="round" stroke-linejoin="round"/>
<path d="M1864.87 1505.21L1904.74 1519.95" stroke="white" stroke-width="2" stroke-miterlimit="10" stroke-linecap="round" stroke-linejoin="round"/>
<path d="M1856.18 1507.88L1844.69 1547.05" stroke="white" stroke-width="2" stroke-miterlimit="10" stroke-linecap="round" stroke-linejoin="round"/>
<path d="M1850.03 1505.21L1813.95 1524.66" stroke="white" stroke-width="2" stroke-miterlimit="10" stroke-linecap="round" stroke-linejoin="round"/>
<path d="M1848.77 1498.73L1807 1495.77" stroke="white" stroke-width="2" stroke-miterlimit="10" stroke-linecap="round" stroke-linejoin="round"/>
<path d="M1851.41 1492.22L1824.12 1462.85" stroke="white" stroke-width="2" stroke-miterlimit="10" stroke-linecap="round" stroke-linejoin="round"/>
<path d="M1880.41 1544.85L1861.96 1507.26" stroke="white" stroke-width="2" stroke-miterlimit="10" stroke-linecap="round" stroke-linejoin="round"/>
</svg>
