<svg width="1000" height="1000" viewBox="0 0 1000 1000" fill="none" xmlns="http://www.w3.org/2000/svg">
<path d="M766.2 669.1C761.26 647.36 747.28 629.085 734.585 610.745C716.18 584.22 699.865 556.305 685.785 527.25C679.24 513.59 672.83 499.355 661.605 489.159C631.21 467.035 592.8 457.929 559.005 441.705C511.295 420.158 442.164 397.842 404.906 447.605C381.885 474.089 416.257 504.805 435.623 523.405C439.599 527.315 478.139 569.125 478.139 569.125C496.672 535.205 532.775 530.65 560.095 557.26C571.19 566.815 581.125 577.91 593.825 585.22L584.14 590.03C613.96 640.95 662.31 707.45 625.57 765.675C588.055 799.855 542.075 775.36 511.68 743.615L513.6 840.385C523.35 871.805 583.885 871.615 608.83 870.845C627.49 870.075 646.665 871.295 664.815 866.42C700.595 854.235 745.23 820.89 761.005 786.07C763.76 778.18 764.275 769.715 764.79 761.38C765.43 730.79 771.65 699.435 766.2 669.1Z" fill="#EFDCC4"/>
<path d="M477.049 527.635C484.937 525.455 495.005 525.135 502.51 526.16C515.78 528.02 527.005 533.02 537.585 541.36C545.475 547.58 555.415 556.685 565.865 560.98C577.795 566.24 590.745 567.715 601.005 575.54L600.88 575.41C601.84 576.18 602.74 577.015 603.635 577.845C606.52 580.795 611.14 576.245 608.19 573.36C592.35 558.48 569.01 560.15 553.295 545.85C541.435 535.78 525.98 523.595 508.985 520.775C503.535 519.3 471.534 516.8 473.137 525.39C473.377 526.195 473.916 526.88 474.644 527.295C475.372 527.715 476.233 527.835 477.049 527.635Z" fill="white"/>
<path d="M712.525 716.3C694.44 719.825 674.37 729.955 675.65 751.245C675.585 758.235 676.615 765.225 675.78 772.155C675.78 771.51 675.845 771.77 675.78 772.025C675.585 774.46 673.855 779.785 673.47 780.615C672.05 783.965 670.195 787.115 667.955 789.98C666.995 791.52 660.71 797.74 658.98 798.895C654.515 802.2 649.695 804.995 644.615 807.23C627.555 815.31 598.57 812.555 592.285 834.355C590.49 843.845 600.75 844.105 598.57 836.855C598.44 836.6 598.635 834.23 598.505 835.445C598.955 832.37 601.52 829.675 603.57 827.945C615.18 819.735 630.57 819.48 644.23 814.22C660.775 808 676.29 795.495 681.1 777.99C683.99 768.115 681.23 755.285 682.32 746.63C682.625 744.575 683.14 742.555 683.86 740.6C684.555 738.935 685.46 737.36 686.555 735.92C688.155 733.225 695.785 728.225 699.06 727.135C704.005 725.21 709.085 723.645 714.255 722.455C718.23 721.43 716.5 715.21 712.525 716.3Z" fill="white"/>
<path d="M770.175 684.875C759.335 645.31 727.915 615.62 709.255 579.77C707.545 581.16 705.7 582.36 703.74 583.36C705.715 585.675 707.335 588.265 708.55 591.06C753.695 663.65 774.665 668.78 763.315 761.38C762.285 773.82 762.735 786.515 759.595 798.635C746.19 834.165 692.835 874.115 656.03 881.49C614.6 883.86 553.17 892.71 520.4 863.02C516.68 858.595 517.58 852.57 517.45 846.86C516.81 817.32 516.19 787.735 515.59 758.11C594.08 823.71 664.88 766.7 634.61 673.845C617.105 618.825 531.365 499.868 478.331 580.35C470.829 573.165 462.62 565.15 455.31 558.095C451.462 554.375 415.423 515.195 406.765 497.239C399.84 485.696 401.443 477.488 407.727 466.458C452.873 407.461 533.545 450.939 586.32 472.358C586.785 470.26 587.775 468.317 589.21 466.715C588.5 466.343 587.745 466.063 586.965 465.881C533.48 443.821 462.941 406.179 411.767 452.03C370.341 488.005 429.146 544.885 454.925 566.625C461.402 572.075 467.109 578.425 473.201 584.325C475.382 586.44 479.037 590.995 481.666 587.02C539.125 490.634 659.04 678.975 631.725 740.925C617.425 794.79 560.03 785.17 525.08 757.21C520.91 754.965 518.09 750.22 513.155 749.835C511.165 749.515 509.05 750.67 509.115 752.915C516.105 844.49 480.897 892.2 603.83 890.405C664.815 891.685 690.4 883.415 736.06 841.6C753.695 825.825 769.15 805.69 768.57 780.94C769.275 749.005 775.755 716.555 770.175 684.875Z" fill="#452D34"/>
<path d="M500.775 501.73C492.632 493.007 405.355 455.813 486.155 463.38C523.095 466.907 562.595 467.356 590.745 491.532C601.005 500.38 609.47 511.09 619.22 520.58C630.955 531.93 644.55 541.485 655 554.12C665.435 566.87 672.155 582.245 674.435 598.56C675.46 605.805 675.46 613.565 672.06 620.045C665.135 632.995 646.025 635.5 633.39 627.93C620.76 620.365 613.77 605.935 610.56 591.57C609.215 585.8 610.5 579.32 605.88 575.605C605.88 575.605 558.04 563.035 500.775 501.73Z" fill="#452D34"/>
<path d="M807.88 294.661C841.935 336.729 864.315 365.073 884 392.391C801.02 467.356 672.314 597.47 672.314 597.47C660.13 613.375 636.725 612.285 628.515 599.52L619.025 568.355C617.87 564.53 615.85 561.025 613.13 558.1C610.405 555.175 607.049 552.915 603.314 551.49C582.41 543.475 541.434 525.52 543.999 509.165C544.384 506.665 541.559 504.805 543.354 503.01C604.919 440.358 660.324 386.62 725.094 326.789L807.88 294.661Z" fill="#D13535"/>
<path d="M881.565 410.604C863.8 385.915 845.01 361.995 825.965 338.268L804.995 312.233C804.6 311.799 804.09 311.487 803.52 311.335C802.975 311.165 802.385 311.187 801.855 311.399C774.28 322.108 746.64 332.689 719.065 343.463C708.035 352.312 698.16 362.829 687.515 372.32C636.3 420.33 586.065 469.43 536.815 519.62C535.61 520.53 534.79 521.86 534.53 523.35C534.27 524.84 534.58 526.37 535.405 527.635C534.7 540.845 547.205 549.375 557.335 555.53C565.85 560.635 574.725 565.11 583.885 568.935C592.095 572.845 602.29 574.515 607.675 582.595C614.41 594.65 615.565 609.205 621.08 621.71C632.56 637.42 658.465 634.47 669.365 619.53L667.955 620.365C738.43 551.425 807.815 480.695 881.05 414.451C881.545 413.954 881.865 413.309 881.955 412.614C882.05 411.919 881.91 411.213 881.565 410.604ZM542.65 533.73C542.355 532.955 542.12 532.16 541.945 531.355V531.225C541.915 530.63 541.94 530.025 542.01 529.43C542.395 527.83 541.56 525.84 540.985 524.56C599.725 464.663 659.96 406.243 721.695 349.298L793.325 321.531C794.48 320.762 796.275 320.249 798.135 319.671C720.475 393.354 643.14 467.421 569.585 545.205L564.135 551.04C563.84 551.315 563.6 551.64 563.43 552.005C555.09 547.385 547.46 541.745 542.65 533.73ZM664.88 615.04L666.29 614.205C661.415 618.31 657.12 623.57 650.385 624.915C641.855 627.675 630.76 624.275 626.4 618.44C622.81 607.09 619.795 595.42 615.82 584.195C610.56 570.475 595.555 567.14 583.5 561.75C578.885 559.57 574.01 557.39 569.2 555.02C644.87 474.603 724.645 398.227 804.74 322.237H804.805C828.595 351.671 852.32 381.169 874.51 411.822C802.625 477.424 733.56 546.105 664.88 615.04Z" fill="#452D34"/>
<path d="M738.495 459.148C738.37 459.148 738.24 459.148 738.24 459.212H738.495V459.148Z" fill="#CE9C5C"/>
<path d="M763.12 332.817C771.715 304.345 670.52 415.541 666.095 420.671C672.83 392.199 684.755 308.192 647.435 312.232C631.595 315.374 622.875 326.917 619.025 341.346C576.38 305.627 508.73 348.528 555.735 395.341C580.295 419.902 617.615 426.314 648.075 438.37C643.14 441 522.385 557.135 552.72 546.68C583.33 509.01 617.075 474 653.59 442.026L653.91 442.41C654.17 472.23 675.91 495.7 693.99 517.245C699.935 524.13 706.09 530.82 712.46 537.32C713.075 537.84 713.87 538.11 714.675 538.075C715.48 538.035 716.245 537.695 716.81 537.12C717.38 536.545 717.71 535.775 717.735 534.97C717.76 534.165 717.48 533.375 716.95 532.765C695.85 509.105 670.395 485.825 661.67 454.402C694.25 478.257 712.715 517.055 746.77 539.18C747.51 539.6 748.39 539.72 749.215 539.505C750.045 539.29 750.75 538.755 751.195 538.025C753.18 533.085 745.485 531.545 742.92 528.6H743.05C713.805 505.705 695.785 471.268 665.585 449.4C664.7 447.349 663.65 445.376 662.44 443.501C663.015 443.168 663.475 442.675 663.775 442.082C664.07 441.49 664.185 440.824 664.11 440.166C670.775 433.689 681.295 437.28 688.86 440.166L689.63 440.487C705.79 446.515 715.985 464.406 734.005 465.624C741.255 466.137 748.69 463.572 752.795 457.352C754.975 452.094 748.05 451.324 747.025 454.466C744.975 457.096 742.345 458.506 738.495 459.083C738.75 459.083 738.43 459.148 738.24 459.148C736.665 459.34 735.07 459.34 733.495 459.148C733.235 459.148 732.02 458.955 733.045 459.148C731.005 458.84 729 458.303 727.08 457.544C727.08 457.561 727.09 457.578 727.1 457.59C727.11 457.602 727.13 457.609 727.145 457.609C717.075 453.12 709.895 444.27 700.405 438.819C689.885 432.92 676.615 427.276 664.62 432.022C695.165 396.757 728.075 363.612 763.12 332.817ZM717.015 451.388C717.4 451.709 717.14 451.452 717.015 451.388V451.388ZM671.29 436.831H670.97C671.1 436.831 671.225 436.767 671.29 436.831ZM623.645 352.889C645.19 371.422 649.36 403.1 655.77 431.701L655.645 431.829C632.045 407.269 620.695 387.774 623.645 352.889ZM637.24 323.326C640.315 320.761 645.32 318.837 647.565 318.645H648.01C678.535 317.042 664.365 400.343 659.81 419.453C653.59 390.018 646.985 363.534 624.67 345.578C626.72 336.408 631.085 327.879 637.24 323.326ZM567.915 397.521C543.935 379.373 534.89 352.312 566.765 336.921C585.105 328.969 602.74 338.204 617.55 348.592C614.54 375.397 620.055 401.754 636.855 419.709C633.52 419.068 631.79 424.006 634.8 425.609C636.34 426.443 637.815 427.34 639.29 428.302C613.64 419.325 589.145 413.617 567.915 397.521Z" fill="#CE9C5C"/>
<path d="M808.2 629.79C798.97 629.855 797.685 620.17 796.66 613.18L791.335 619.85C783.64 629.535 768.38 618.89 774.73 608.31C760.425 610.55 755.105 588.235 777.74 587.145C770.56 583.555 762.545 578.555 767.355 569.445C772.16 560.34 781.655 565.535 788.385 569.895C786.465 562.07 784.54 552.26 794.865 549.89C805.19 547.515 807.175 558.29 808.33 566.24C811.345 562.775 815.065 556.045 820.385 555.915C829.105 554.695 835.135 565.6 829.43 572.27L824.685 578.17C831.735 575.99 840.585 576.37 842.32 585.095C842.805 587.63 842.31 590.255 840.925 592.435C839.545 594.62 837.38 596.19 834.88 596.83C844.945 604.205 834.62 619.98 823.785 613.695L816.54 609.525C818.845 618.245 820.13 628.83 808.2 629.79ZM798.135 604.715C803.2 604.78 800.955 621.84 805.38 623.76C809.805 625.685 814.035 622.93 813.14 618.695C813.27 616.71 808.845 603.625 811.535 602.47C811.935 602.185 812.405 602.015 812.895 601.995C813.385 601.97 813.875 602.09 814.295 602.345L826.35 609.335C827.51 609.97 828.875 610.13 830.155 609.785C831.435 609.44 832.53 608.61 833.21 607.475C836.095 602.6 829.94 599.585 826.48 597.79C824.49 596.7 825.005 593.43 827.31 593.11C831.16 592.47 838.535 591.825 837.315 586.055C835.2 576.435 819.935 587.785 816.22 583.3C815.95 582.845 815.825 582.32 815.86 581.795C815.895 581.27 816.085 580.765 816.41 580.35L825.45 569.125C829.555 564.06 821.605 557.71 817.565 562.84L808.845 573.745C808.535 574.115 808.13 574.395 807.675 574.545C807.215 574.7 806.725 574.72 806.255 574.605C805.79 574.495 805.36 574.25 805.025 573.905C804.69 573.56 804.455 573.125 804.355 572.655C802.685 568.42 803.585 553.22 795.825 554.89C794.52 555.155 793.37 555.92 792.63 557.025C791.885 558.13 791.605 559.48 791.85 560.79L794.415 574.45C794.93 576.5 792.49 578.23 790.695 577.14L778.64 570.15C773.06 566.815 767.93 575.665 773.575 578.875L786.205 586.12C786.65 586.385 787.005 586.775 787.22 587.245C787.44 587.715 787.51 588.24 787.425 588.75C787.365 589.27 787.14 589.755 786.78 590.135C786.42 590.515 785.95 590.77 785.435 590.865L771.65 593.495C765.235 594.585 767.095 604.65 773.51 603.37L780.435 602.025C782.68 601.51 784.41 604.395 782.935 606.125L779.535 610.36C775.37 615.36 783.385 621.775 787.36 616.645C788.645 615.62 796.145 604.14 798.135 604.715Z" fill="#D13535"/>
<path d="M720.41 189.237C711.115 189.237 710.025 179.81 708.87 172.628L703.545 179.297C695.85 188.98 680.59 178.271 687 167.754C672.7 169.999 667.315 147.682 689.95 146.592C682.835 143.001 674.755 137.999 679.565 128.893C685.335 119.851 693.735 124.981 700.595 129.342C698.675 121.518 696.75 111.707 707.075 109.334C717.4 106.962 719.45 117.735 720.54 125.687C723.62 122.224 727.275 115.426 732.595 115.362C741.255 114.08 747.345 125.11 741.64 131.715L736.955 137.614C744.01 135.434 752.795 135.755 754.53 144.54C755.62 149.606 752.155 155.057 747.09 156.275C757.155 163.65 746.83 179.425 735.995 173.141L728.815 168.973C731.055 177.694 732.34 188.275 720.41 189.237ZM710.345 164.163C710.94 164.169 711.52 164.383 711.975 164.77C712.435 165.156 712.74 165.69 712.845 166.279L715.475 180.002C716.18 184.299 722.205 185.581 724.58 181.926C726.89 179.618 722.785 167.241 722.72 164.484C722.635 164.004 722.685 163.51 722.87 163.059C723.05 162.607 723.36 162.218 723.755 161.935C724.155 161.652 724.625 161.489 725.11 161.463C725.595 161.438 726.08 161.551 726.505 161.79L738.56 168.716C744.14 172.051 749.27 163.201 743.56 160.059L738.69 157.237C736.7 156.147 737.275 152.877 739.52 152.492L745.55 151.402C749.78 150.696 751.13 144.604 747.41 142.296C744.395 138.576 725.095 149.221 728.62 139.795C729.965 137.358 739.715 128.059 738.69 124.853C738.37 120.492 732.405 118.825 729.84 122.288L721.055 133.19C720.745 133.562 720.34 133.841 719.885 133.993C719.425 134.146 718.935 134.167 718.465 134.053C718 133.939 717.57 133.695 717.235 133.35C716.9 133.004 716.665 132.571 716.565 132.099C714.96 127.867 715.795 112.605 708.035 114.336C706.735 114.585 705.585 115.339 704.84 116.433C704.095 117.526 703.815 118.871 704.06 120.172L706.69 133.895C705.79 144.54 688.86 121.775 683.99 131.458C683.655 132.03 683.44 132.662 683.355 133.317C683.27 133.973 683.315 134.639 683.485 135.277C683.66 135.915 683.955 136.512 684.36 137.035C684.765 137.557 685.27 137.994 685.845 138.32L698.415 145.566C700.47 146.656 699.89 149.927 697.645 150.312C695.4 150.696 681.935 151.979 680.655 155.057C678.09 158.584 681.485 163.714 685.72 162.752L692.645 161.47C693.16 161.371 693.69 161.431 694.17 161.643C694.645 161.855 695.05 162.207 695.32 162.654C695.59 163.1 695.72 163.619 695.69 164.141C695.66 164.663 695.47 165.163 695.145 165.574L691.745 169.806C687.645 174.808 695.595 181.221 699.57 176.091C700.915 175.065 708.355 163.586 710.345 164.163Z" fill="#EFDCC4"/>
<path d="M148.462 405.153C148.128 405.162 147.795 405.103 147.484 404.981C147.173 404.859 146.891 404.677 146.652 404.444C146.412 404.21 146.222 403.932 146.092 403.624C145.963 403.316 145.896 402.986 145.896 402.652V341.859C145.896 341.179 146.167 340.527 146.648 340.046C147.129 339.565 147.781 339.294 148.462 339.294C149.142 339.294 149.794 339.565 150.275 340.046C150.756 340.527 151.027 341.179 151.027 341.859V402.652C151.027 402.986 150.96 403.316 150.83 403.624C150.701 403.932 150.51 404.21 150.271 404.444C150.032 404.677 149.749 404.859 149.438 404.981C149.127 405.103 148.795 405.162 148.462 405.153Z" fill="#CE9C5C"/>
<path d="M126.722 400.921C126.136 400.927 125.567 400.723 125.119 400.343C124.604 399.907 124.282 399.286 124.222 398.614C124.162 397.942 124.369 397.273 124.799 396.752L168.213 344.938C168.669 344.501 169.27 344.248 169.9 344.226C170.531 344.205 171.148 344.417 171.632 344.822C172.117 345.227 172.435 345.796 172.525 346.421C172.616 347.046 172.473 347.682 172.124 348.208L128.71 400.023C128.458 400.3 128.151 400.522 127.809 400.677C127.467 400.831 127.097 400.914 126.722 400.921Z" fill="#CE9C5C"/>
<path d="M172.381 398.932C172.035 398.936 171.692 398.87 171.372 398.737C171.052 398.605 170.763 398.41 170.521 398.163L122.746 350.388C122.276 349.908 122.013 349.264 122.013 348.592C122.013 347.921 122.276 347.276 122.746 346.797C122.979 346.556 123.258 346.365 123.567 346.235C123.875 346.104 124.207 346.037 124.542 346.037C124.877 346.037 125.208 346.104 125.517 346.235C125.825 346.365 126.104 346.556 126.337 346.797L174.176 394.572C174.646 395.051 174.909 395.696 174.909 396.367C174.909 397.038 174.646 397.683 174.176 398.163C173.944 398.405 173.665 398.598 173.357 398.73C173.048 398.862 172.716 398.931 172.381 398.932Z" fill="#CE9C5C"/>
<path d="M178.857 374.821H118.065C117.385 374.821 116.733 374.551 116.252 374.07C115.77 373.589 115.5 372.936 115.5 372.256C115.5 371.575 115.77 370.923 116.252 370.442C116.733 369.961 117.385 369.691 118.065 369.691H178.857C179.538 369.691 180.19 369.961 180.671 370.442C181.152 370.923 181.423 371.575 181.423 372.256C181.423 372.936 181.152 373.589 180.671 374.07C180.19 374.551 179.538 374.821 178.857 374.821Z" fill="#CE9C5C"/>
<path d="M544.96 282.862C544.28 282.862 543.625 282.592 543.145 282.111C542.665 281.63 542.395 280.977 542.395 280.297V219.504C542.395 219.17 542.46 218.84 542.59 218.532C542.72 218.224 542.91 217.946 543.15 217.713C543.39 217.48 543.669 217.297 543.984 217.175C544.294 217.053 544.625 216.995 544.96 217.003C545.29 216.994 545.619 217.053 545.924 217.176C546.234 217.298 546.514 217.482 546.749 217.716C546.979 217.95 547.164 218.229 547.289 218.537C547.409 218.844 547.469 219.173 547.459 219.504V280.297C547.469 280.631 547.409 280.963 547.289 281.274C547.164 281.585 546.984 281.868 546.749 282.107C546.519 282.346 546.239 282.536 545.929 282.666C545.624 282.795 545.295 282.862 544.96 282.862Z" fill="#CE9C5C"/>
<path d="M523.22 278.566C522.615 278.561 522.03 278.359 521.555 277.989C521.04 277.553 520.715 276.931 520.655 276.259C520.595 275.587 520.805 274.918 521.235 274.398L564.71 222.583C565.155 222.064 565.785 221.742 566.465 221.688C567.14 221.634 567.815 221.852 568.335 222.294C568.855 222.737 569.175 223.367 569.23 224.046C569.285 224.726 569.065 225.399 568.625 225.918L525.145 277.668C524.905 277.943 524.61 278.165 524.275 278.32C523.945 278.474 523.585 278.558 523.22 278.566Z" fill="#CE9C5C"/>
<path d="M568.815 276.578C568.48 276.577 568.15 276.507 567.84 276.375C567.53 276.243 567.25 276.051 567.02 275.808L519.245 228.033C518.875 227.539 518.695 226.928 518.74 226.312C518.78 225.696 519.045 225.117 519.485 224.68C519.92 224.244 520.5 223.979 521.115 223.935C521.73 223.892 522.34 224.072 522.835 224.442L570.61 272.217C570.85 272.45 571.04 272.729 571.175 273.038C571.305 273.346 571.37 273.678 571.37 274.013C571.37 274.348 571.305 274.679 571.175 274.987C571.04 275.296 570.85 275.575 570.61 275.808C570.38 276.054 570.1 276.249 569.795 276.381C569.485 276.513 569.15 276.581 568.815 276.578Z" fill="#CE9C5C"/>
<path d="M575.29 252.466H514.565C513.885 252.466 513.23 252.196 512.75 251.715C512.27 251.234 512 250.581 512 249.901C512 249.221 512.27 248.568 512.75 248.087C513.23 247.606 513.885 247.336 514.565 247.336H575.29C575.97 247.336 576.625 247.606 577.105 248.087C577.585 248.568 577.855 249.221 577.855 249.901C577.855 250.581 577.585 251.234 577.105 251.715C576.625 252.196 575.97 252.466 575.29 252.466Z" fill="#CE9C5C"/>
<path d="M262.865 488.39C270.362 490.462 278.02 491.899 285.758 492.686C287.618 492.878 290.119 491.66 291.401 490.313C292.902 488.816 293.754 486.79 293.774 484.67C293.646 482.618 293.004 480.438 291.401 479.027L289.798 477.745C288.567 477.041 287.176 476.665 285.758 476.654L283.706 476.398L285.886 476.718C279.566 475.884 273.31 474.62 267.161 472.935C265.056 472.431 262.839 472.728 260.941 473.769C259.151 474.844 257.842 476.566 257.286 478.578C256.837 480.63 256.901 482.939 258.055 484.734C259.145 486.511 260.861 487.815 262.865 488.39Z" fill="#D13535"/>
<path d="M344.626 494.482C346.806 495.073 349.041 495.438 351.295 495.572C353.402 495.595 355.505 495.423 357.58 495.059C360.809 494.453 363.924 493.35 366.814 491.788C368.546 490.891 370.213 489.8 371.88 488.71C373.548 487.62 377.01 485.632 379.447 483.965C381.884 482.297 385.86 479.348 388.169 476.077C389.259 474.41 389.451 471.781 388.938 469.921C388.381 467.908 387.073 466.187 385.283 465.111C383.423 464.15 381.179 463.637 379.127 464.278C377.14 464.92 375.439 466.236 374.317 467.997L374.061 468.318L375.343 466.65C374.447 467.742 373.412 468.712 372.265 469.536L373.868 468.318C370.726 470.755 367.327 472.678 363.993 474.795C361.743 476.329 359.361 477.66 356.874 478.771L358.798 478.001C356.902 478.779 354.922 479.339 352.899 479.668L355.015 479.348C353.315 479.593 351.59 479.615 349.885 479.412L352.001 479.668C350.942 479.516 349.893 479.302 348.859 479.027C347.844 478.744 346.783 478.664 345.738 478.792C344.692 478.919 343.682 479.251 342.764 479.77C341.847 480.288 341.041 480.982 340.392 481.811C339.743 482.641 339.265 483.591 338.983 484.606C338.534 486.658 338.598 488.967 339.817 490.762C340.904 492.555 342.618 493.88 344.626 494.482Z" fill="#D13535"/>
<path d="M290.824 531.355C292.904 535.565 295.833 539.305 299.427 542.33C303.021 545.355 307.202 547.605 311.707 548.935C316.212 550.265 320.944 550.65 325.605 550.065C330.266 549.475 334.755 547.935 338.791 545.525C340.137 544.695 341.548 543.795 343.087 543.73C344.626 543.67 346.55 545.015 347.833 546.36C357.067 555.595 369.572 599.97 336.033 603.115C315.641 605.035 295.633 598.625 276.459 591.505C271.714 589.71 266.904 587.53 263.762 583.62C257.542 575.99 259.465 564.575 264.018 555.915C268.417 547.585 274.805 540.47 282.615 535.205C285.148 533.525 287.914 532.23 290.824 531.355Z" fill="#D13535"/>
<path d="M294.479 463.701C294.415 463.829 294.479 463.765 294.479 463.701V463.701Z" fill="#452D34"/>
<path d="M421.964 303.126C421.964 303.062 421.9 302.998 421.9 302.934C421.9 302.87 422.028 303.383 421.964 303.126Z" fill="#452D34"/>
<path d="M312.691 388.352C312.563 388.352 312.498 388.288 312.37 388.352H312.691Z" fill="#452D34"/>
<path d="M298.007 446.9L297.75 447.22C297.814 447.22 297.879 447.156 298.007 446.9Z" fill="#452D34"/>
<path d="M307.433 443.565H306.984C307.433 443.629 307.497 443.565 307.433 443.565Z" fill="#452D34"/>
<path d="M329.108 481.207C328.98 481.079 328.851 481.015 328.787 481.079L329.108 481.207Z" fill="#452D34"/>
<path d="M291.337 316.593C286.912 314.028 280.627 318.068 281.076 323.198C281.525 328.329 288.579 332.561 292.94 328.585C297.3 324.609 295.954 318.004 291.337 316.593Z" fill="#452D34"/>
<path d="M355.72 316.401C351.36 313.836 345.075 317.876 345.524 323.006C345.973 328.136 352.963 332.368 357.323 328.328C361.684 325.25 360.337 317.812 355.72 316.401Z" fill="#452D34"/>
<path d="M300.763 305.499V305.371C292.555 302.998 272.675 305.178 268.443 305.948C265.75 306.397 265.237 310.886 267.802 311.784C268.081 312.203 268.464 312.541 268.914 312.766C269.364 312.991 269.865 313.095 270.367 313.066C275.176 312.489 315.128 315.054 300.763 305.499Z" fill="#452D34"/>
<path d="M345.203 304.152H345.075C340.907 304.024 340.971 310.501 345.075 310.501C355.199 311.463 365.366 311.912 375.536 311.847C376.02 311.866 376.502 311.764 376.939 311.552C377.375 311.339 377.752 311.022 378.036 310.629C387.271 300.625 352.257 303.254 345.203 304.152Z" fill="#452D34"/>
<path d="M332.699 339.936C329.621 335.19 332.634 329.226 330.839 324.032C329.043 318.838 322.695 322.75 325.004 327.238C324.811 340.32 324.234 339.936 332.186 349.298C332.25 349.683 332.443 350.068 332.507 350.453C332.571 350.837 332.443 351.927 332.507 350.966C332.571 351.735 331.801 352.953 331.481 353.402L331.608 353.274C330.948 353.996 330.138 354.565 329.236 354.941C327.184 355.647 326.222 355.647 323.849 355.454C319.745 355.39 319.681 361.867 323.849 361.867C338.342 363.214 343.985 349.234 332.699 339.936Z" fill="#452D34"/>
<path d="M235.226 312.553C235.803 305.306 229.518 304.28 228.557 309.475C229.198 313.386 228.877 322.941 234.584 322.236C239.394 320.505 235.033 315.182 235.098 311.719C235.171 311.991 235.214 312.271 235.226 312.553Z" fill="#452D34"/>
<path d="M413.563 306.204C410.998 305.371 408.369 308.641 409.908 310.95C410.535 311.806 410.945 312.802 411.102 313.853C411.258 314.903 411.156 315.975 410.806 316.978C408.176 320.569 413.627 324.673 416.064 320.761C418.501 316.849 418.373 308.833 413.563 306.204Z" fill="#452D34"/>
<path d="M272.547 556.365C280.348 562.055 289.229 566.095 298.646 568.235C308.063 570.375 317.817 570.57 327.312 568.805C332.185 566.56 329.171 560.855 323.079 563.035C317.418 563.76 311.688 563.78 306.022 563.1C299.05 562.145 292.274 560.09 285.95 557.005C282.378 555.295 278.984 553.23 275.818 550.85C272.291 548.67 269.02 554.25 272.547 556.365Z" fill="white"/>
<path d="M472.112 230.598C467.238 213.605 457.811 198.342 448.32 183.465C435.687 163.842 421.451 143.385 399.904 134.407C388.618 129.662 376.113 128.508 363.865 127.418C333.982 124.788 300.122 123.313 277.934 143.578C272.163 148.9 267.61 155.377 263.249 161.854C257.734 170.062 250.167 181.669 245.165 190.198L247.025 190.326C254.336 185.773 263.762 185.132 272.419 186.286C281.077 187.441 291.08 190.711 300.635 191.93C310.19 193.148 318.014 192.507 326.671 191.93L404.906 187.12C410.678 186.735 417.026 186.543 421.579 190.134C426.132 193.725 426.453 202.511 420.938 204.242L421.708 204.755C423.255 204.885 424.695 205.602 425.732 206.758C426.769 207.914 427.325 209.423 427.287 210.975V211.873C428.737 215.11 429.162 218.712 428.505 222.198C428.41 222.524 428.238 222.822 428.004 223.067C427.77 223.313 427.48 223.498 427.158 223.608C427.158 223.625 427.152 223.642 427.14 223.654C427.128 223.666 427.111 223.673 427.094 223.673C412.794 237.46 418.245 268.946 422.285 294.597C424.401 307.936 427.607 318.581 424.273 326.853C422.413 331.599 433.379 342.18 437.355 345.258C438.637 346.22 440.176 347.182 441.715 346.797C443.254 346.412 443.96 345.386 444.793 344.232C468.713 311.783 483.206 269.395 472.112 230.598Z" fill="#D13535"/>
<path d="M416.706 618.695C411.062 624.915 405.227 627.995 402.469 635.945C399.712 643.9 399.968 653.26 405.099 659.93C407.387 662.71 410.117 665.09 413.179 666.985C418.758 670.83 424.85 674.36 431.583 675.385C432.669 675.515 433.761 675.575 434.854 675.575C443.96 675.575 451.719 668.33 452.104 659.225C452.168 658.005 451.976 656.98 451.527 656.465C449.475 654.415 444.729 649.415 433.25 636.59C426.389 629.02 416.706 618.695 416.706 618.695Z" fill="#EFDCC4"/>
<path d="M507.64 635.56C523.475 627.035 541.56 634.92 547.59 652.105C551.18 676.22 521.94 719.375 479.101 713.35C479.101 713.35 465.314 708.73 462.877 693.405C461.915 687.44 461.017 681.415 458.965 675.705C458.75 675.105 458.709 674.455 458.847 673.83C458.985 673.205 459.296 672.63 459.745 672.175C460.193 671.72 460.761 671.4 461.383 671.255C462.005 671.105 462.656 671.14 463.261 671.345C469.931 675.32 477.434 674.485 483.91 670C489.361 666.985 495.004 663.715 498.339 658.455C501.675 653.195 504.88 641.46 505.97 637.615C506.095 637.175 506.305 636.77 506.59 636.415C506.88 636.065 507.235 635.77 507.64 635.56Z" fill="#D13535"/>
<path d="M440.625 355.262C438.816 354.537 436.918 354.063 434.981 353.851C471.662 306.333 475.83 239.897 437.546 191.994C425.683 173.526 412.665 154.287 392.786 143.642C360.979 129.342 289.028 124.661 262.351 150.504C248.628 164.74 237.213 182.439 228.299 199.882C227.145 202.19 229.005 204.884 230.223 207.385C226.247 210.591 220.476 209.95 216.179 212.707C207.073 217.773 211.562 230.406 220.219 233.1C225.35 235.216 231.634 234.382 236.828 235.472C237.342 235.573 237.871 235.562 238.38 235.44C238.889 235.318 239.366 235.089 239.778 234.767C297.877 237.717 356.041 238.294 414.268 236.499C420.36 235.152 418.052 225.404 416.641 221.044C416.962 214.823 417.154 212.515 413.563 211.681C416.32 205.269 411.767 196.675 405.098 194.559C401.443 193.277 397.403 193.918 393.619 193.79C367.071 193.726 340.522 197.381 314.038 198.279C304.418 199.048 294.735 199.369 285.116 198.022C270.046 195.649 254.271 189.237 238.88 193.854C264.916 140.885 299.096 133.638 354.181 140.628C397.339 141.719 416.769 169.806 437.29 203.601C471.021 250.222 461.658 308.642 427.992 352.44L427.414 353.146C427.266 353.253 427.083 353.299 426.901 353.274H427.03C421.515 349.811 417.154 343.27 413.755 337.627C411.703 334.036 406.124 337.306 408.24 340.833C411.062 345.579 416 353.274 421.322 357.122C398.237 378.54 432.416 403.87 450.821 384.055C458.388 373.987 452.296 358.917 440.625 355.262ZM229.903 227.841C229.323 227.825 228.749 227.958 228.235 228.226C225.798 228.162 223.49 227.905 222.143 227.072C220.797 226.238 216.821 223.545 217.462 220.659C217.334 221.621 217.526 220.082 217.654 219.954C219.514 216.042 229.967 217.004 235.097 211.553C240.291 213.284 269.982 220.403 270.367 212.836C270.35 211.99 270.007 211.184 269.41 210.586C268.812 209.989 268.006 209.646 267.161 209.629C256.067 209.95 246.704 207.898 236.444 205.782C236.055 204.679 235.583 203.607 235.033 202.575C256.515 191.225 283.321 209.757 308.266 205.076C335.584 204.243 362.902 201.164 390.221 200.074C396.89 199.625 410.036 199.048 407.663 209.244C407.549 209.487 407.42 209.722 407.278 209.95C407.011 210.309 406.658 210.595 406.252 210.783C404.649 211.104 403.559 213.156 404.072 214.759C404.585 216.363 407.663 218.03 408.433 219.312C411.126 222.839 411.703 226.11 411.575 230.15C351.039 231.945 290.375 231.176 229.903 227.841ZM447.614 375.334C446.524 387.775 425.298 387.005 420.809 377.322C418.244 371.486 422.348 365.202 426.517 361.162C430.3 358.853 435.238 360.136 439.15 361.482L438.893 361.354C440.267 361.999 441.577 362.772 442.805 363.663C443.732 364.397 444.571 365.237 445.306 366.164C445.242 366.035 445.178 365.971 445.178 365.907C447.143 368.633 448.013 371.997 447.614 375.334Z" fill="#452D34"/>
<path d="M442.805 363.663C442.741 363.599 442.677 363.599 442.677 363.534C442.677 363.47 442.548 363.663 442.805 363.663Z" fill="#452D34"/>
<path d="M428.376 560.02C428.38 559.91 428.358 559.8 428.312 559.7C428.312 559.83 428.376 559.89 428.376 560.02Z" fill="#452D34"/>
<path d="M448.513 592.405C448.256 592.15 448.192 592.02 448.128 592.02C449.346 593.75 451.27 596.635 453.899 595.035C458.645 590.93 450.629 585.865 448.384 582.4C442.292 575.54 435.687 569.06 429.403 562.395C429.146 562.065 428.911 561.725 428.697 561.365C428.633 561.11 428.505 560.405 428.377 560.02C428.249 559.635 428.313 560.02 428.313 559.83C428.281 559.485 428.281 559.145 428.313 558.8V558.355C428.377 558.03 428.505 557.71 428.569 557.39C428.592 557.365 428.61 557.335 428.621 557.3C428.632 557.27 428.636 557.235 428.633 557.2C429.531 555.465 429.723 555.34 431.455 554.375C431.583 554.375 432.417 553.99 432.673 554.055H434.469C438.83 556.235 441.908 549.89 437.29 548.155C427.03 544.5 417.475 557.135 423.888 565.985C431.904 574.835 441.01 582.915 448.513 592.405ZM428.697 561.3C428.674 561.275 428.657 561.245 428.646 561.215C428.635 561.18 428.63 561.145 428.633 561.11C428.633 561.24 428.633 561.3 428.697 561.3Z" fill="#452D34"/>
<path d="M439.535 609.655C443.51 610.81 445.242 604.59 441.266 603.435C431.519 599.845 421.002 586.955 416.449 575.86C416.128 574.575 415.872 573.68 416.705 571.37L417.282 570.345L417.667 569.96L417.86 569.83H418.373C421.964 573.1 426.709 567.91 422.605 564.895C412.793 558.355 406.253 573.68 411.832 580.99C417.603 593.11 426.901 604.59 439.535 609.655Z" fill="#452D34"/>
<path d="M574.585 582.655C571.635 579.835 566.765 579.385 569.715 582.4L571.575 583.745C580.87 592.34 589.59 607.025 596.58 616.13C606.905 629.275 617.105 646.53 622.875 660.505C628.07 672.435 632.495 688.34 633.905 699.56C635.315 708.605 635.25 722.26 634.16 729.125C633.07 735.985 630.7 745.285 628.965 749.065C622.36 766.06 606.905 778.05 591.39 779.785C577.73 781.45 566.06 778.63 553.04 773.305C543.805 769.65 528.285 760.035 520.145 753.62C513.28 748.235 507.51 741.435 502.185 734.51C496.865 727.585 489.875 717.39 483.398 708.73C503.6 709.755 529.055 694.75 538.035 676.99C543.42 668.265 549.32 658.52 549.13 647.94C548.925 646.28 548.56 644.65 548.04 643.065C553.49 645.375 559.325 646.72 564.775 648.835C566.825 649.605 571.19 652.235 573.05 654.16C575.995 657.045 580.55 652.49 577.6 649.605C570.42 642.615 560.48 640.95 551.5 637.615C549.12 636.575 546.84 635.31 544.705 633.83C544.245 633.535 543.71 633.38 543.165 633.38C535.79 623.25 522.835 617.48 510.205 621.58L508.15 622.095C508.215 620.045 508.085 618.055 508.15 616.71C507.06 604.525 502.38 592.79 496.416 582.21C495.005 579.835 493.466 577.27 491.478 575.345C488.528 572.395 483.975 576.95 486.925 579.9C493.787 588.235 499.366 601.83 501.48 614.53C502.83 622.16 489.747 674.485 459.094 659.61L458.645 659.29C451.976 655.25 445.306 647.235 439.086 640.435C435.751 638.065 432.481 628.955 427.736 632.61C427.437 632.905 427.2 633.255 427.038 633.64C426.876 634.025 426.792 634.44 426.792 634.855C426.792 635.275 426.876 635.69 427.038 636.075C427.2 636.46 427.437 636.81 427.736 637.1C434.918 645.5 442.1 654.03 450.437 661.275C451.27 661.92 452.296 662.88 453.451 663.65L453.322 663.84C452.938 666.665 453.579 669.485 454.348 672.305C453.822 672.31 453.307 672.455 452.856 672.725C452.405 672.995 452.035 673.385 451.783 673.845C451.16 674.63 450.45 675.34 449.667 675.96C445.563 679.17 439.791 679.295 437.162 678.975C430.237 678.205 422.285 673.14 416.706 668.97C407.343 662.75 406.894 649.86 411.511 640.115C412.666 636.91 416 631.65 417.347 630.045C418.124 628.92 419.004 627.87 419.976 626.905C422.926 629.6 427.351 625.11 424.401 622.285C421.162 619.4 418.219 616.2 415.616 612.73C412.345 609.015 406.638 599.395 406.574 595.48C406.509 591.57 406.83 590.16 408.433 588.94C410.036 587.725 412.217 586.055 410.87 583.875C406.445 579.065 400.289 587.275 400.097 591.89C399.776 603.625 407.471 613.825 415.423 622.285C377.011 663.07 433.058 701.23 456.08 678.465C456.429 679.85 456.623 681.265 456.657 682.695C458.709 696.035 465.25 703.6 473.971 706.87C474.274 707.6 474.76 708.24 475.382 708.73C485.642 721.75 495.582 738.485 508.215 751.375V751.695C509.88 796.905 511.485 842.05 509.88 887.26C509.88 891.365 516.295 891.495 516.295 887.26C517.365 851.305 517.105 815.29 515.525 779.205C515.27 771.96 515.01 764.715 514.82 757.47L515.27 757.85C556.76 792.415 621.85 805.18 638.715 739.705C651.09 680.515 616.46 621.965 574.585 582.655ZM459.35 666.15C459.35 666.15 459.35 665.895 459.479 665.83H459.607C459.671 665.83 459.799 665.895 459.799 665.83C459.799 665.765 459.799 665.895 459.735 665.895C472.56 673.46 485.258 662.495 494.62 653.645C500.2 646.655 503.47 638.385 506.225 630.045C513.535 626.39 520.465 625.88 527.775 628.445C527.775 628.445 527.71 628.445 527.775 628.38C527.84 628.315 528.16 628.57 527.965 628.51C534.185 631.33 538.29 636.975 541.625 643.835C545.86 668.525 516.105 698.985 492.183 701.995C463.262 706.23 464.929 685.71 459.35 666.15Z" fill="#452D34"/>
<path d="M405.74 341.282C423.76 339.551 435.303 314.413 426.838 298.638C425.727 296.861 424.153 295.42 422.285 294.469C430.172 276.642 421.9 256.699 413.948 239.577C413.084 237.665 411.687 236.042 409.924 234.905C408.161 233.767 406.107 233.163 404.009 233.164C368.803 235.28 251.514 227.713 224.965 235.152C210.152 247.913 198.737 288.313 224.965 294.213C209.575 307.167 221.823 334.741 238.817 340.449C241.035 363.04 250.714 384.25 266.327 400.728C273.317 421.441 278.832 449.593 264.853 469.473C230.865 477.809 195.339 490.121 172.958 518.595C172.253 519.49 171.547 520.39 170.906 521.35C141.857 559.315 130.378 608.63 127.171 655.7C123.965 702.765 134.674 787.415 187.964 795.305C186.81 824.76 186.767 854.215 187.836 883.67C187.836 887.775 194.313 887.84 194.248 883.67C193.222 859.235 193.415 834.805 193.864 810.37C193.992 805.565 194.12 800.69 194.377 795.815C201.149 795.955 207.907 795.135 214.449 793.38C216.629 792.415 220.477 792.03 222.721 790.555C290.503 767.855 332.635 655.505 345.589 595.035C366.943 582.85 355.913 535.01 340.138 533.215C342.639 519.81 347.064 504.68 341.164 491.276C339.112 487.685 333.533 490.955 335.585 494.546C338.855 503.395 337.509 513.975 335.97 522.375C334.559 527.7 332.956 530.01 333.789 535.075C319.81 543.99 298.776 538.665 290.952 523.915C293.71 507.565 295.185 490.442 297.044 473.833C297.109 469.729 292.748 467.292 294.992 461.777C301.982 453.954 343.921 462.162 338.471 477.104C338.663 476.719 338.471 477.232 338.406 477.36C338.445 477.28 338.467 477.193 338.471 477.104C336.996 480.695 332.635 482.298 329.108 481.208L328.787 481.08L327.697 480.374C325.709 477.937 320.002 480.951 323.208 484.927C328.531 489.673 337.252 488.518 341.869 483.452C354.951 486.915 365.853 480.118 375.664 469.537C384.642 470.755 393.684 471.268 402.726 471.589C406.83 471.653 406.894 465.176 402.726 465.176C394.903 464.92 385.668 464.407 378.422 463.509C371.047 444.142 371.24 422.339 373.548 401.69C389.708 385.081 400.61 363.791 405.74 341.282ZM408.882 298.574C411.96 298.253 414.782 297.868 416.898 297.419C417.091 299.536 421.131 300.626 421.9 302.934C423.124 306.363 423.563 310.023 423.183 313.643C423.118 313.836 422.926 314.862 423.118 313.9C421.579 323.968 415.68 331.599 406.958 335.062C409.203 323.006 409.01 310.757 408.882 298.574ZM235.162 331.214C233.324 329.75 231.647 328.095 230.16 326.277C228.933 324.602 227.86 322.821 226.953 320.954L226.697 320.377C224.26 314.285 222.977 305.628 227.531 300.241C227.851 299.92 227.851 300.049 227.659 300.177C229.839 299.407 230.865 297.74 230.929 296.201C233.11 296.842 235.29 297.419 237.406 297.868C237.406 309.603 238.368 321.403 238.304 333.138C237.202 332.591 236.15 331.947 235.162 331.214ZM338.984 475.372C338.919 475.821 338.984 475.501 338.984 475.244V475.372ZM209.639 787.99C208.228 788.375 206.753 788.635 205.278 788.89L204.445 789.08L202.585 789.34C199.215 789.625 195.831 789.69 192.453 789.53C188.022 789.095 183.667 788.085 179.499 786.515L178.537 786.13H178.409L175.972 785.105C169.688 781.9 161.223 774.525 157.888 769.59C144.165 751.31 138.458 728.995 135.187 706.42C131.917 683.85 132.494 656.595 135.764 632.42C138.586 610.615 145.255 584.005 154.041 563.485C159.043 551.81 164.942 540.525 172.253 530.135L175.331 525.905L175.908 525.07L176.036 524.94L176.485 524.365C177.896 522.635 180.589 519.365 182.385 517.44C203.996 494.354 235.418 483.516 265.558 475.885C273.253 479.22 281.462 481.721 289.862 482.298C288.387 495.38 286.592 507.95 285.309 521.03C266.071 528.085 248.244 552.84 254.592 572.46C235.675 601.895 219.194 632.805 201.046 662.75C198.93 666.28 204.509 669.615 206.625 666.02C224.068 637.1 240.099 607.28 258.183 578.68C274.856 592.66 316.988 602.795 338.599 597.6C322.503 665.765 282.808 769.265 209.639 787.99ZM349.18 581.18C349.244 581.055 349.308 580.99 349.308 580.925L349.18 581.18ZM340.138 539.5H340.01C340.074 539.435 340.138 539.435 340.138 539.5ZM337.701 540.395C338.421 540.24 339.073 539.86 339.561 539.305C349.116 545.465 351.809 564.125 350.975 574.255C345.46 608.5 292.556 587.145 271.073 579.705C245.807 569.765 267.161 534.945 285.758 527.765C296.467 546.425 321.733 550.4 337.701 540.395ZM295.313 440.872C290.824 444.078 287.938 452.03 290.503 457.032C287.297 460.495 286.72 465.946 290.632 473.769C290.568 474.474 290.503 475.116 290.503 475.821C284.155 475.629 277.229 473.448 271.522 471.396C275.947 464.535 279.217 451.453 279.345 447.926C280.461 435.052 279.244 422.083 275.754 409.642C284.027 416.375 291.722 420.415 296.531 421.826C296.595 428.174 295.89 434.523 295.313 440.872ZM313.012 452.992C306.792 451.965 300.7 452.094 296.083 453.697C296.147 451.26 296.66 448.888 297.75 447.22L298.07 446.772V446.9C300.443 444.784 303.906 444.206 307.048 443.629H306.92C319.425 442.283 337.06 446.002 337.893 461.649C330.839 456.454 320.387 453.376 313.012 452.992ZM312.371 388.352C312.05 388.288 313.012 388.288 313.012 388.352H312.691C316.475 389.121 319.489 393.482 320.194 397.971C319.81 409.77 319.617 424.519 321.028 437.794C314.74 436.422 308.22 436.532 301.982 438.114C303.521 426.507 302.303 414.708 303.97 403.037C304.74 396.881 307.433 388.416 311.922 388.288C310.575 388.48 311.601 388.352 312.371 388.352ZM363.608 471.974C358.158 475.949 352.579 479.156 344.947 477.681C346.294 473.128 345.012 469.088 342.19 465.689C342.809 465.492 343.346 465.096 343.717 464.563C344.088 464.029 344.273 463.388 344.242 462.739C344.563 451.389 337.188 443.629 327.569 439.782C326.962 435.447 326.64 431.077 326.607 426.7C341.356 424.584 355.079 417.786 366.43 408.231C364.827 427.469 365.66 445.617 371.688 464.342C369.444 466.715 364.763 471.204 363.608 471.974ZM326.543 420.287C326.03 410.476 327.89 400.023 324.555 390.788C331.994 390.596 343.537 389.378 341.549 382.773C340.651 381.426 338.599 380.592 337.124 381.618C332.25 384.825 325.068 384.312 319.104 384.44C315.962 382.195 312.178 381.169 308.523 382.516L308.074 382.324H308.138C304.419 379.117 299.481 383.735 303.201 386.941C297.173 394.636 296.852 405.474 296.66 415.477C268.893 402.652 249.27 372.32 245.422 342.052C244.204 328.778 244.332 312.745 243.819 299.087C299.994 306.589 266.84 289.403 294.095 270.935C310.639 261.316 319.617 279.848 324.555 274.462C333.533 269.267 348.09 265.484 355.015 275.808C369.444 303.64 371.111 301.203 402.47 299.215C402.47 309.283 402.79 319.351 401.379 329.355C395.608 369.691 369.316 412.656 326.543 420.287Z" fill="#452D34"/>
<path d="M293.389 263.752C294.158 263.239 294.992 262.79 295.825 262.341L296.531 262.021C297.236 261.636 296.082 262.213 296.531 262.021C297.033 261.8 297.547 261.608 298.07 261.443C298.91 261.157 299.767 260.922 300.635 260.738L302.046 260.482C302.879 260.353 301.34 260.546 302.174 260.482H302.943C303.88 260.375 304.823 260.332 305.765 260.353H306.984L307.753 260.482H308.074C309.93 260.815 311.754 261.308 313.524 261.956H313.717L314.165 262.213L316.218 263.047C317.37 263.363 318.552 263.557 319.745 263.624C322.247 263.668 324.72 263.072 326.927 261.892L328.21 261.251L329.043 260.93C328.466 261.123 328.914 260.93 329.043 260.866L332.314 259.776L335.392 259.135C336.033 259.007 335.456 259.135 335.328 259.135H336.161L337.7 259.007C338.815 258.975 339.931 259.039 341.035 259.199C340.266 259.071 341.099 259.199 341.227 259.263L341.997 259.391L343.536 259.776L345.203 260.353C345.78 260.546 345.267 260.353 345.139 260.353L346.101 260.738C347.079 261.276 348.021 261.876 348.923 262.534C350.269 263.56 352.578 262.79 353.283 261.379C353.989 259.969 353.603 258.109 352.129 257.019C344.946 251.504 334.879 251.632 326.799 254.967L323.464 256.506C323.336 256.57 322.502 256.89 323.208 256.634L322.374 256.955L321.733 257.083C321.605 257.147 320.578 257.275 321.412 257.211H319.745C319.745 257.211 318.847 257.147 319.36 257.211C319.873 257.275 318.975 257.147 318.975 257.147L317.372 256.634H317.18L316.474 256.313C312.462 254.544 308.093 253.731 303.713 253.941C298.896 254.118 294.219 255.603 290.182 258.237C289.454 258.665 288.925 259.364 288.709 260.18C288.492 260.997 288.607 261.865 289.028 262.598C289.926 264.009 291.914 264.714 293.389 263.752Z" fill="white"/>
<path d="M278.704 265.099L276.716 266.574C276.358 266.781 276.051 267.066 275.818 267.408C275.551 267.726 275.354 268.098 275.241 268.498C275.112 268.916 275.112 269.363 275.241 269.78C275.247 270.186 275.358 270.584 275.561 270.935L276.074 271.576C276.456 271.982 276.946 272.271 277.485 272.41L278.383 272.538C278.95 272.549 279.507 272.393 279.986 272.089L281.91 270.678C282.267 270.47 282.573 270.185 282.808 269.845C283.107 269.549 283.309 269.168 283.385 268.754C283.531 268.342 283.553 267.897 283.449 267.472C283.449 267.036 283.315 266.61 283.064 266.253L282.551 265.612C282.154 265.225 281.671 264.94 281.14 264.779L280.307 264.65C279.744 264.67 279.194 264.824 278.704 265.099Z" fill="white"/>
<path d="M375.728 290.044C376.842 290.968 378.071 291.744 379.384 292.353C380.693 292.964 382.071 293.416 383.488 293.699C383.905 293.817 384.343 293.839 384.77 293.764C385.174 293.703 385.565 293.573 385.925 293.379C386.293 293.181 386.615 292.907 386.869 292.575C387.123 292.244 387.304 291.862 387.4 291.455C387.522 291.039 387.556 290.601 387.501 290.171C387.446 289.74 387.302 289.326 387.079 288.954C386.878 288.588 386.603 288.268 386.272 288.015C385.941 287.761 385.56 287.578 385.155 287.479C384.075 287.308 383.02 287.006 382.013 286.581L382.782 286.902C381.688 286.429 380.654 285.827 379.704 285.106L380.346 285.619H380.281C379.999 285.307 379.648 285.066 379.255 284.914C378.853 284.731 378.414 284.644 377.973 284.657C377.345 284.666 376.734 284.859 376.215 285.212C375.696 285.565 375.292 286.062 375.053 286.643C374.814 287.223 374.751 287.861 374.871 288.477C374.991 289.093 375.289 289.66 375.728 290.108V290.044Z" fill="white"/>
<path d="M222.08 245.669C216.792 251.777 213.522 259.37 212.717 267.408C212.525 269.075 214.32 270.678 215.923 270.614C217.527 270.55 218.937 269.203 219.13 267.408C219.13 267.215 219.194 266.959 219.194 266.767C219.194 266.574 219.13 267.344 219.194 266.702C219.248 266.248 219.334 265.798 219.45 265.356C219.579 264.522 219.771 263.688 219.963 262.919L220.733 260.482C220.854 260.045 221.004 259.617 221.182 259.199L221.438 258.622C221.567 258.109 221.118 259.264 221.438 258.494C222.14 256.952 222.932 255.453 223.811 254.005L225.286 251.825L225.607 251.376C225.222 251.953 225.607 251.44 225.671 251.312L226.633 250.158C227.723 248.939 227.979 246.887 226.633 245.669C225.286 244.45 223.234 244.258 222.08 245.669Z" fill="white"/>
<path d="M254.976 295.624C259.159 296.17 263.403 296.04 267.545 295.239C269.212 294.918 270.302 292.802 269.789 291.263C269.536 290.453 268.984 289.771 268.246 289.354C267.507 288.937 266.637 288.817 265.813 289.019L264.403 289.275H263.569C262.634 289.403 261.691 289.467 260.747 289.468C258.818 289.521 256.888 289.414 254.976 289.147C254.134 289.178 253.335 289.521 252.732 290.109C252.425 290.397 252.18 290.744 252.013 291.13C251.846 291.516 251.76 291.933 251.76 292.353C251.76 292.774 251.846 293.19 252.013 293.576C252.18 293.962 252.425 294.31 252.732 294.598C253.344 295.171 254.138 295.511 254.976 295.56V295.624Z" fill="white"/>
<path d="M487.758 684.04C504.11 680.9 525.335 671.09 526.105 652.105C525.015 646.465 518.67 648.835 519.565 654.285C519.565 654.225 519.695 653.515 519.63 654.16C519.405 655.41 519.065 656.63 518.605 657.815C518.41 658.265 518.605 657.685 518.67 657.685C517.13 661.66 513.025 665.765 510.46 667.69C506.95 670.245 503.165 672.395 499.173 674.1C494.949 675.86 490.539 677.13 486.027 677.885C482.051 678.91 483.718 685.13 487.758 684.04Z" fill="white"/>
</svg>
